<svg width="30" height="30" viewBox="0 0 30 30" fill="none" xmlns="http://www.w3.org/2000/svg">
<path d="M14.9757 28.2754C7.9247 28.2754 2.81879 22.6832 2.81879 14.9514C2.81879 7.2682 7.9247 1.72464 14.9757 1.72464C22.0754 1.72464 27.1813 7.2682 27.1813 14.9514C27.1813 22.6832 22.0754 28.2754 14.9757 28.2754ZM14.9757 25.3091C19.9844 25.3091 23.7287 21.3216 23.7287 14.9514C23.7287 8.6784 19.9844 4.69093 14.9757 4.69093C10.0157 4.69093 6.27136 8.6784 6.27136 14.9514C6.27136 21.3216 10.0157 25.3091 14.9757 25.3091Z" fill="#4D84F3"/>
<path d="M14.9757 28.2754C7.9247 28.2754 2.81879 22.6832 2.81879 14.9514C2.81879 7.2682 7.9247 1.72464 14.9757 1.72464C22.0754 1.72464 27.1813 7.2682 27.1813 14.9514C27.1813 22.6832 22.0754 28.2754 14.9757 28.2754ZM14.9757 25.3091C19.9844 25.3091 23.7287 21.3216 23.7287 14.9514C23.7287 8.6784 19.9844 4.69093 14.9757 4.69093C10.0157 4.69093 6.27136 8.6784 6.27136 14.9514C6.27136 21.3216 10.0157 25.3091 14.9757 25.3091Z" fill="#4D84F3"/>
<path d="M13.122 20.8626C12.9413 21.2331 12.5652 21.4682 12.1529 21.4682H10.8663L16.8641 9.13818C17.0445 8.76724 17.421 8.5318 17.8336 8.5318H19.1337L13.122 20.8626Z" fill="#4D84F3"/>
</svg>
