<svg width="58" height="17" viewBox="0 0 58 17"  xmlns="http://www.w3.org/2000/svg">
<path d="M6.77136 13.434H1.70736V12.822L5.59536 7.83004H1.82736V7.11004H6.62736V7.75804L2.76336 12.714H6.77136V13.434ZM10.1286 13.554C8.35265 13.554 7.17665 12.222 7.17665 10.218C7.17665 8.37004 8.40065 6.99004 10.0806 6.99004C11.8806 6.99004 13.0566 8.44204 12.9126 10.47H8.01665C8.08865 11.97 8.88065 12.894 10.1166 12.894C11.1726 12.894 11.9046 12.306 12.1086 11.298H12.9366C12.6486 12.702 11.5806 13.554 10.1286 13.554ZM10.0686 7.63804C8.92865 7.63804 8.12465 8.51404 8.01665 9.89404H12.0366C11.9646 8.47804 11.2326 7.63804 10.0686 7.63804ZM14.9009 10.05V13.434H14.0609V7.11004H14.8409V8.55004C15.2729 7.61404 16.2089 7.01404 17.2529 7.01404V7.89004C15.9209 7.84204 14.9009 8.67004 14.9009 10.05ZM31.4311 10.758C31.4311 12.402 30.1111 13.554 27.9511 13.554C25.7791 13.554 24.4231 12.39 24.2911 10.566H26.1391C26.1871 11.514 26.7991 12.126 27.9151 12.126C28.8391 12.126 29.4991 11.718 29.4991 11.022C29.4991 10.482 29.0791 10.158 28.3471 10.014L26.9311 9.73804C25.6231 9.48604 24.6151 8.77804 24.6151 7.35004C24.6151 5.81404 25.9711 4.71004 27.8311 4.71004C29.7631 4.71004 31.1791 5.83804 31.2991 7.63804H29.4511C29.3911 6.73804 28.7671 6.12604 27.8551 6.12604C26.9671 6.12604 26.4631 6.63004 26.4631 7.23004C26.4631 7.81804 27.0031 8.07004 27.6271 8.19004L29.1031 8.49004C30.6151 8.79004 31.4311 9.48604 31.4311 10.758ZM35.1761 13.542C33.2561 13.542 31.9721 12.21 31.9721 10.206C31.9721 8.29804 33.3041 6.90604 35.1521 6.90604C37.1801 6.90604 38.5241 8.55004 38.2241 10.638H33.6761C33.7841 11.682 34.2881 12.258 35.1401 12.258C35.8721 12.258 36.3641 11.898 36.5561 11.262H38.2121C37.8521 12.714 36.7361 13.542 35.1761 13.542ZM35.1161 8.13004C34.3361 8.13004 33.8441 8.63404 33.7001 9.58204H36.4601C36.4121 8.69404 35.9081 8.13004 35.1161 8.13004ZM43.0385 11.814V13.266C42.6305 13.47 42.2465 13.554 41.7545 13.554C40.4345 13.554 39.6065 12.798 39.6065 11.358V8.45404H38.3105V7.02604H39.6065V5.13004H41.2625V7.02604H43.0985V8.45404H41.2625V10.974C41.2625 11.718 41.5985 12.018 42.1985 12.018C42.5105 12.018 42.7985 11.946 43.0385 11.814ZM47.777 10.734V7.02604H49.433V13.434H47.909V12.594C47.561 13.158 46.853 13.554 46.037 13.554C44.753 13.554 43.817 12.774 43.817 11.106V7.02604H45.485V10.782C45.485 11.682 45.929 12.078 46.601 12.078C47.201 12.078 47.777 11.598 47.777 10.734ZM57.0876 10.23C57.0876 12.126 55.9716 13.554 54.2436 13.554C53.4876 13.554 52.8396 13.23 52.3596 12.606V15.75H50.6916V7.02604H52.2276V7.96204C52.7196 7.27804 53.4276 6.90604 54.2436 6.90604C55.9716 6.90604 57.0876 8.34604 57.0876 10.23ZM55.3716 10.23C55.3716 9.03004 54.6876 8.38204 53.8716 8.38204C53.0556 8.38204 52.3716 9.01804 52.3716 10.23C52.3716 11.442 53.0556 12.066 53.8716 12.066C54.6876 12.066 55.3716 11.454 55.3716 10.23Z" fill="black"/>
<path d="M20.7108 13.434C19.0097 13.434 17.7778 12.0849 17.7778 10.2195C17.7778 8.36591 19.0097 7.02849 20.7108 7.02849C22.4236 7.02849 23.6554 8.36591 23.6554 10.2195C23.6554 12.0849 22.4236 13.434 20.7108 13.434ZM20.7108 12.7184C21.9191 12.7184 22.8225 11.7564 22.8225 10.2195C22.8225 8.70613 21.9191 7.74413 20.7108 7.74413C19.5141 7.74413 18.6108 8.70613 18.6108 10.2195C18.6108 11.7564 19.5141 12.7184 20.7108 12.7184Z" fill="#4D84F3"/>
<path d="M20.7108 13.434C19.0097 13.434 17.7778 12.0849 17.7778 10.2195C17.7778 8.36591 19.0097 7.02849 20.7108 7.02849C22.4236 7.02849 23.6554 8.36591 23.6554 10.2195C23.6554 12.0849 22.4236 13.434 20.7108 13.434ZM20.7108 12.7184C21.9191 12.7184 22.8225 11.7564 22.8225 10.2195C22.8225 8.70613 21.9191 7.74413 20.7108 7.74413C19.5141 7.74413 18.6108 8.70613 18.6108 10.2195C18.6108 11.7564 19.5141 12.7184 20.7108 12.7184Z" fill="#4D84F3"/>
<path d="M20.2635 11.6457C20.22 11.735 20.1292 11.7917 20.0298 11.7917H19.7194L21.1664 8.81705C21.2099 8.72756 21.3007 8.67076 21.4003 8.67076H21.7139L20.2635 11.6457Z" fill="#4D84F3"/>
</svg>
